<?xml version="1.0" encoding="utf-8"?>
<svg version="1.1" id="Layer_1" xmlns="http://www.w3.org/2000/svg" xmlns:xlink="http://www.w3.org/1999/xlink" x="0px" y="0px"
	 width="623.621px" height="623.621px" viewBox="0 0 623.621 623.621" enable-background="new 0 0 623.621 623.621"
	 xml:space="preserve">
<g>
	<g>

			<linearGradient id="SVGID_1_" gradientUnits="userSpaceOnUse" x1="115.5308" y1="238.8677" x2="223.2495" y2="238.8677" gradientTransform="matrix(1 0 0 -1 14.3301 513.79)">
			<stop  offset="0" style="stop-color:#F8AB16"/>
			<stop  offset="0.5123" style="stop-color:#EB5D30"/>
			<stop  offset="1" style="stop-color:#D8232C"/>
		</linearGradient>
		<path fill="url(#SVGID_1_)" d="M235.465,271.931c9.986-33.704-16.409-66.55-57.89-49.315
			c-28.94,12.022-40.986,49.704-47.715,81.326c18.292,22.542,42.996,28.026,42.996,28.026
			C166.07,244.915,228.022,268.554,235.465,271.931z"/>
	</g>

		<linearGradient id="SVGID_2_" gradientUnits="userSpaceOnUse" x1="447.856" y1="464.7964" x2="603.3777" y2="53.1266" gradientTransform="matrix(1 0 0 -1 14.3301 513.79)">
		<stop  offset="0" style="stop-color:#F8AB16"/>
		<stop  offset="0.5123" style="stop-color:#EB5D30"/>
		<stop  offset="1" style="stop-color:#D8232C"/>
	</linearGradient>
	<path fill="url(#SVGID_2_)" d="M528.667,195.343c22.651,0.912,44.852,3.483,66.551,7.555
		C571.551,141.364,528.453,89.505,473.399,54.81c-25.619,6.698-50.26,15.798-73.663,27.107
		C455.093,103.104,500.846,143.656,528.667,195.343z"/>

		<linearGradient id="SVGID_3_" gradientUnits="userSpaceOnUse" x1="586.02" y1="290.7627" x2="-8.6313" y2="107.7911" gradientTransform="matrix(1 0 0 -1 14.3301 513.79)">
		<stop  offset="0" style="stop-color:#EA4F76"/>
		<stop  offset="0.4877" style="stop-color:#BF5DA0"/>
		<stop  offset="1" style="stop-color:#6A4492"/>
	</linearGradient>
	<path fill="url(#SVGID_3_)" d="M311.812,615.419c89.25,0,169.5-38.518,225.045-99.822c-15.762-11.513-32.361-21.922-49.705-31.118
		c-44.633,45.323-106.693,73.452-175.34,73.452c-135.928,0-246.122-110.194-246.122-246.121
		c0-135.937,110.194-246.122,246.122-246.122c2.062,0,4.103,0.108,6.163,0.15c25.838-17.475,53.577-32.357,82.769-44.369
		c-28.124-8.62-57.985-13.269-88.933-13.269C144.137,8.201,8.199,144.123,8.199,311.81
		C8.201,479.488,144.137,615.419,311.812,615.419z"/>

		<linearGradient id="SVGID_4_" gradientUnits="userSpaceOnUse" x1="439.0376" y1="461.4653" x2="594.5648" y2="49.7813" gradientTransform="matrix(1 0 0 -1 14.3301 513.79)">
		<stop  offset="0" style="stop-color:#F8AB16"/>
		<stop  offset="0.5123" style="stop-color:#EB5D30"/>
		<stop  offset="1" style="stop-color:#D8232C"/>
	</linearGradient>
	<path fill="url(#SVGID_4_)" d="M569.866,471.75c28.85-46.447,45.556-101.229,45.556-159.94c0-16.777-1.413-33.208-4.029-49.25
		c-19.753-5.08-40.081-8.695-60.868-10.756c4.829,19.2,7.412,39.301,7.412,60.006c0,47.265-13.35,91.4-36.446,128.889
		C538.278,450.068,554.438,460.442,569.866,471.75z"/>
	<g>

			<linearGradient id="SVGID_5_" gradientUnits="userSpaceOnUse" x1="492.4194" y1="215.5449" x2="224.3266" y2="-6.8285" gradientTransform="matrix(1 0 0 -1 14.3301 513.79)">
			<stop  offset="0" style="stop-color:#F8AB16"/>
			<stop  offset="0.5123" style="stop-color:#EB5D30"/>
			<stop  offset="1" style="stop-color:#D8232C"/>
		</linearGradient>
		<path fill="url(#SVGID_5_)" d="M497.061,258.917c0,0-14.452,1.156-28.88,2.008c0,0-33.309,17.155-54.319,48.894
			c-21.012,31.729-60.038,58.744-60.038,58.744s2.918,81.443-80.252,118.491h93.568c-7.642-10.169-28.321-7.427-28.321-7.427
			c25.729-12.865,23.155-64.318,23.155-64.318s8.578-33.449,28.3-49.743c36.372-30.044,42.883-51.46,42.883-51.46
			c45.46-14.583,66.045-45.459,66.045-45.459c0.233-0.212,0.399-0.415,0.618-0.629C497.391,264.449,497.061,258.917,497.061,258.917
			z"/>
	</g>

		<linearGradient id="SVGID_6_" gradientUnits="userSpaceOnUse" x1="456.3218" y1="339.938" x2="-41.395" y2="22.9759" gradientTransform="matrix(1 0 0 -1 14.3301 513.79)">
		<stop  offset="0" style="stop-color:#EA4F76"/>
		<stop  offset="0.4877" style="stop-color:#BF5DA0"/>
		<stop  offset="1" style="stop-color:#6A4492"/>
	</linearGradient>
	<path fill="url(#SVGID_6_)" d="M500.915,254.063c-31.733-54.884-87.478-62.604-87.478-62.604
		c-36.025-54.033-63.47-54.891-63.47-54.891c-3.434,42.026,31.733,79.766,31.733,79.766c-19.71,10.276-30.006,53.973-30.018,54.027
		c-1.777,7.332-26.421,9.972-32.425,11.915c-30.677,9.957-55.598,38.848-73.238,64.574c-11.64,16.981-18.694,35.009-23.684,55.481
		c-13.893-44.396,53.874-117.389,61.165-159.414c4.792-27.633,3.43-87.055-59.607-85.766
		c-63.037,1.284-106.778,50.167-106.35,106.775c0.128,17.103,5.266,30.115,12.316,40.014c6.728-31.622,20.765-63.734,49.702-75.756
		c41.483-17.23,54.62,10.015,50.764,35.742c0.551,0.246-2.144,7.29-2.144,7.29c-0.888,1.517-8.362,18.066-12.784,24.897
		c-45.805,93.193-5.229,162.506-5.229,162.506s11.985,19.881,20.211,28.433h49.981c58.264-25.69,75.397-87.262,80.184-114.069
		c2.54,0.419,4.873,0.765,6.886,1.101c15.728,2.572,10.265,21.494,25.135,16.915c14.868-4.573,15.436-22.303-1.143-28.303
		c-6.796-2.456-9.868-4.973-15.728-9.435c8.186-5.927,19.976-15.975,38.163-43.442c21.01-31.739,54.318-48.894,54.318-48.894
		c14.429-0.853,28.88-2.008,28.88-2.008s0.331,5.532,2.759,9.099C513.248,261.463,500.915,254.063,500.915,254.063z
		 M446.021,223.617c0,0,14.583-4.287,17.581,10.723C466.606,249.349,433.589,236.054,446.021,223.617z"/>
</g>
</svg>
